<?xml version="1.0" encoding="utf-8" ?>
<svg xmlns="http://www.w3.org/2000/svg" xmlns:ev="http://www.w3.org/2001/xml-events" xmlns:xlink="http://www.w3.org/1999/xlink" baseProfile="full" height="500" version="1.1" width="1600">
  <defs>
    <style type="text/css"><![CDATA[.background path {fill: #808080; fill-opacity: 0}.background path:nth-child(odd) {fill-opacity: .1}.axes {font-size: 14px}.x-axis .tick .lab {font-weight: bold; dominant-baseline: hanging}.axes, .tree {font-size: 14px; text-anchor: middle}.axes line, .edge {stroke: black; fill: none}.y-axis .grid {stroke: #FAFAFA}.node > .sym {fill: black; stroke: none}.site > .sym {stroke: black}.mut text {fill: red; font-style: italic}.mut.extra text {fill: hotpink}.mut line {fill: none; stroke: none}.mut .sym {fill: none; stroke: red}.mut.extra .sym {stroke: hotpink}.node .mut .sym {stroke-width: 1.5px}.tree text, .tree-sequence text {dominant-baseline: central}.plotbox .lab.lft {text-anchor: end}.plotbox .lab.rgt {text-anchor: start}]]></style>
  </defs>
  <g class="tree-sequence">
    <g class="axes">
      <g class="x-axis">
        <g transform="translate(818.4,500)">
          <text class="lab" text-anchor="middle" transform="translate(0 -11)">Genome position</text>
        </g>
        <line x1="56.8" x2="1580" y1="463.2" y2="463.2"/>
        <g class="ticks">
          <g class="tick" transform="translate(56.8 463.2)">
            <line x1="0" x2="0" y1="-5" y2="5"/>
            <g transform="translate(0,6)">
              <text class="lab">0</text>
            </g>
          </g>
          <g class="tick" transform="translate(564.533 463.2)">
            <line x1="0" x2="0" y1="-5" y2="5"/>
            <g transform="translate(0,6)">
              <text class="lab">10</text>
            </g>
          </g>
          <g class="tick" transform="translate(1072.27 463.2)">
            <line x1="0" x2="0" y1="-5" y2="5"/>
            <g transform="translate(0,6)">
              <text class="lab">29</text>
            </g>
          </g>
          <g class="tick" transform="translate(1580 463.2)">
            <line x1="0" x2="0" y1="-5" y2="5"/>
            <g transform="translate(0,6)">
              <text class="lab">43</text>
            </g>
          </g>
        </g>
      </g>
      <g class="y-axis">
        <g transform="translate(0,215.7)">
          <text class="lab" text-anchor="middle" transform="translate(11) rotate(-90)"> </text>
        </g>
        <line x1="56.8" x2="56.8" y1="421.4" y2="10"/>
        <g class="ticks">
          <g class="tick" transform="translate(56.8 421.4)">
            <line x1="0" x2="-5" y1="0" y2="0"/>
            <g transform="translate(-6,0)">
              <text class="lab" text-anchor="end">0</text>
            </g>
          </g>
          <g class="tick" transform="translate(56.8 393.214)">
            <line x1="0" x2="-5" y1="0" y2="0"/>
            <g transform="translate(-6,0)">
              <text class="lab" text-anchor="end">1</text>
            </g>
          </g>
          <g class="tick" transform="translate(56.8 365.029)">
            <line x1="0" x2="-5" y1="0" y2="0"/>
            <g transform="translate(-6,0)">
              <text class="lab" text-anchor="end">2</text>
            </g>
          </g>
          <g class="tick" transform="translate(56.8 336.843)">
            <line x1="0" x2="-5" y1="0" y2="0"/>
            <g transform="translate(-6,0)">
              <text class="lab" text-anchor="end">3</text>
            </g>
          </g>
          <g class="tick" transform="translate(56.8 308.657)">
            <line x1="0" x2="-5" y1="0" y2="0"/>
            <g transform="translate(-6,0)">
              <text class="lab" text-anchor="end">4</text>
            </g>
          </g>
          <g class="tick" transform="translate(56.8 280.471)">
            <line x1="0" x2="-5" y1="0" y2="0"/>
            <g transform="translate(-6,0)">
              <text class="lab" text-anchor="end">5</text>
            </g>
          </g>
          <g class="tick" transform="translate(56.8 252.286)">
            <line x1="0" x2="-5" y1="0" y2="0"/>
            <g transform="translate(-6,0)">
              <text class="lab" text-anchor="end">6</text>
            </g>
          </g>
          <g class="tick" transform="translate(56.8 224.1)">
            <line x1="0" x2="-5" y1="0" y2="0"/>
            <g transform="translate(-6,0)">
              <text class="lab" text-anchor="end">7</text>
            </g>
          </g>
          <g class="tick" transform="translate(56.8 195.914)">
            <line x1="0" x2="-5" y1="0" y2="0"/>
            <g transform="translate(-6,0)">
              <text class="lab" text-anchor="end">8</text>
            </g>
          </g>
          <g class="tick" transform="translate(56.8 167.729)">
            <line x1="0" x2="-5" y1="0" y2="0"/>
            <g transform="translate(-6,0)">
              <text class="lab" text-anchor="end">9</text>
            </g>
          </g>
          <g class="tick" transform="translate(56.8 139.543)">
            <line x1="0" x2="-5" y1="0" y2="0"/>
            <g transform="translate(-6,0)">
              <text class="lab" text-anchor="end">10</text>
            </g>
          </g>
          <g class="tick" transform="translate(56.8 111.357)">
            <line x1="0" x2="-5" y1="0" y2="0"/>
            <g transform="translate(-6,0)">
              <text class="lab" text-anchor="end">11</text>
            </g>
          </g>
          <g class="tick" transform="translate(56.8 83.1714)">
            <line x1="0" x2="-5" y1="0" y2="0"/>
            <g transform="translate(-6,0)">
              <text class="lab" text-anchor="end">12</text>
            </g>
          </g>
          <g class="tick" transform="translate(56.8 54.9857)">
            <line x1="0" x2="-5" y1="0" y2="0"/>
            <g transform="translate(-6,0)">
              <text class="lab" text-anchor="end">13</text>
            </g>
          </g>
          <g class="tick" transform="translate(56.8 26.8)">
            <line x1="0" x2="-5" y1="0" y2="0"/>
            <g transform="translate(-6,0)">
              <text class="lab" text-anchor="end">14</text>
            </g>
          </g>
        </g>
      </g>
    </g>
    <g class="plotbox trees">
      <g class="tree t0" transform="translate(56.8 0)">
        <g class="plotbox">
          <g class="c2 node n24 root" transform="translate(328.611 26.8)">
            <g class="a24 c2 node n22" transform="translate(-116.601 56.3714)">
              <g class="a22 c2 node n17" transform="translate(116.269 140.929)">
                <g class="a17 c1 node n14" transform="translate(-31.8909 84.5571)">
                  <g class="a14 leaf node n1 sample" transform="translate(0.0 112.743)">
                    <path class="edge" d="M 0 0 V -112.743 H 0.0"/>
                    <rect class="sym" height="6" width="6" x="-3" y="-3"/>
                    <text class="lab" transform="translate(0 11)">1</text>
                  </g>
                  <path class="edge" d="M 0 0 V -84.5571 H 31.8909"/>
                  <circle class="sym" cx="0" cy="0" r="3"/>
                  <text class="lab lft" transform="translate(-3 -7.0)">14</text>
                </g>
                <g class="a17 c2 m3 node n15 s2" transform="translate(31.8909 56.3714)">
                  <g class="a15 leaf node n2 sample" transform="translate(-21.2606 140.929)">
                    <path class="edge" d="M 0 0 V -140.929 H 21.2606"/>
                    <rect class="sym" height="6" width="6" x="-3" y="-3"/>
                    <text class="lab" transform="translate(0 11)">2</text>
                  </g>
                  <g class="a15 leaf node n3 sample" transform="translate(21.2606 140.929)">
                    <path class="edge" d="M 0 0 V -140.929 H -21.2606"/>
                    <rect class="sym" height="6" width="6" x="-3" y="-3"/>
                    <text class="lab" transform="translate(0 11)">3</text>
                  </g>
                  <path class="edge" d="M 0 0 V -56.3714 H -31.8909"/>
                  <g class="mut m3 s2" transform="translate(0 -28.1857)">
                    <line x1="0" x2="0" y1="0" y2="28.1857"/>
                    <path class="sym" d="M -3,-3 l 6,6 M -3,3 l 6,-6"/>
                    <text class="lab rgt" transform="translate(5 0)">3</text>
                  </g>
                  <circle class="sym" cx="0" cy="0" r="3"/>
                  <text class="lab rgt" transform="translate(3 -7.0)">15</text>
                </g>
                <path class="edge" d="M 0 0 V -140.929 H -116.269"/>
                <circle class="sym" cx="0" cy="0" r="3"/>
                <text class="lab rgt" transform="translate(3 -7.0)">17</text>
              </g>
              <g class="a22 c2 m11 node n20 s8" transform="translate(-116.269 56.3714)">
                <g class="a20 c1 m2 m4 node n13 s2" transform="translate(-54.4803 197.3)">
                  <g class="a13 leaf m12 node n0 s9 sample" transform="translate(0.0 84.5571)">
                    <path class="edge" d="M 0 0 V -84.5571 H 0.0"/>
                    <g class="mut m12 s9" transform="translate(0 -42.2786)">
                      <line x1="0" x2="0" y1="0" y2="42.2786"/>
                      <path class="sym" d="M -3,-3 l 6,6 M -3,3 l 6,-6"/>
                      <text class="lab lft" transform="translate(-5 0)">12</text>
                    </g>
                    <rect class="sym" height="6" width="6" x="-3" y="-3"/>
                    <text class="lab" transform="translate(0 11)">0</text>
                  </g>
                  <path class="edge" d="M 0 0 V -197.3 H 54.4803"/>
                  <g class="mut m2 s2" transform="translate(0 -131.533)">
                    <line x1="0" x2="0" y1="0" y2="131.533"/>
                    <path class="sym" d="M -3,-3 l 6,6 M -3,3 l 6,-6"/>
                    <text class="lab lft" transform="translate(-5 0)">2</text>
                  </g>
                  <g class="mut m4 s2" transform="translate(0 -65.7667)">
                    <line x1="0" x2="0" y1="0" y2="65.7667"/>
                    <path class="sym" d="M -3,-3 l 6,6 M -3,3 l 6,-6"/>
                    <text class="lab lft" transform="translate(-5 0)">4</text>
                  </g>
                  <circle class="sym" cx="0" cy="0" r="3"/>
                  <text class="lab lft" transform="translate(-3 -7.0)">13</text>
                </g>
                <g class="a20 c2 m6 m7 node n19 s3 s4" transform="translate(54.4803 28.1857)">
                  <g class="a19 leaf m5 node n4 s2 sample" transform="translate(-66.4394 253.671)">
                    <path class="edge" d="M 0 0 V -253.671 H 66.4394"/>
                    <g class="mut m5 s2" transform="translate(0 -126.836)">
                      <line x1="0" x2="0" y1="0" y2="126.836"/>
                      <path class="sym" d="M -3,-3 l 6,6 M -3,3 l 6,-6"/>
                      <text class="lab lft" transform="translate(-5 0)">5</text>
                    </g>
                    <rect class="sym" height="6" width="6" x="-3" y="-3"/>
                    <text class="lab" transform="translate(0 11)">4</text>
                  </g>
                  <g class="a19 c1 node n18" transform="translate(66.4394 28.1857)">
                    <g class="a18 c2 m0 m1 node n16 s0 s1" transform="translate(0.0 56.3714)">
                      <g class="a16 leaf m10 m8 m9 node n10 s5 s6 s7 sample" transform="translate(37.2061 169.114)">
                        <path class="edge" d="M 0 0 V -169.114 H -37.2061"/>
                        <g class="mut m8 s5" transform="translate(0 -126.836)">
                          <line x1="0" x2="0" y1="0" y2="126.836"/>
                          <path class="sym" d="M -3,-3 l 6,6 M -3,3 l 6,-6"/>
                          <text class="lab rgt" transform="translate(5 0)">8</text>
                        </g>
                        <g class="mut m9 s6" transform="translate(0 -84.5571)">
                          <line x1="0" x2="0" y1="0" y2="84.5571"/>
                          <path class="sym" d="M -3,-3 l 6,6 M -3,3 l 6,-6"/>
                          <text class="lab rgt" transform="translate(5 0)">9</text>
                        </g>
                        <g class="mut m10 s7" transform="translate(0 -42.2786)">
                          <line x1="0" x2="0" y1="0" y2="42.2786"/>
                          <path class="sym" d="M -3,-3 l 6,6 M -3,3 l 6,-6"/>
                          <text class="lab rgt" transform="translate(5 0)">10</text>
                        </g>
                        <rect class="sym" height="6" width="6" x="-3" y="-3"/>
                        <text class="lab" transform="translate(0 11)">10</text>
                      </g>
                      <g class="a16 c2 node n12" transform="translate(-37.2061 112.743)">
                        <g class="a12 leaf node n9 sample" transform="translate(31.8909 56.3714)">
                          <path class="edge" d="M 0 0 V -56.3714 H -31.8909"/>
                          <rect class="sym" height="6" width="6" x="-3" y="-3"/>
                          <text class="lab" transform="translate(0 11)">9</text>
                        </g>
                        <g class="a12 c2 node n11" transform="translate(-31.8909 28.1857)">
                          <g class="a11 leaf node n7 sample" transform="translate(-21.2606 28.1857)">
                            <path class="edge" d="M 0 0 V -28.1857 H 21.2606"/>
                            <rect class="sym" height="6" width="6" x="-3" y="-3"/>
                            <text class="lab" transform="translate(0 11)">7</text>
                          </g>
                          <g class="a11 leaf node n8 sample" transform="translate(21.2606 28.1857)">
                            <path class="edge" d="M 0 0 V -28.1857 H -21.2606"/>
                            <rect class="sym" height="6" width="6" x="-3" y="-3"/>
                            <text class="lab" transform="translate(0 11)">8</text>
                          </g>
                          <path class="edge" d="M 0 0 V -28.1857 H 31.8909"/>
                          <circle class="sym" cx="0" cy="0" r="3"/>
                          <text class="lab lft" transform="translate(-3 -7.0)">11</text>
                        </g>
                        <path class="edge" d="M 0 0 V -112.743 H 37.2061"/>
                        <circle class="sym" cx="0" cy="0" r="3"/>
                        <text class="lab lft" transform="translate(-3 -7.0)">12</text>
                      </g>
                      <path class="edge" d="M 0 0 V -56.3714 H 0.0"/>
                      <g class="mut m0 s0" transform="translate(0 -37.581)">
                        <line x1="0" x2="0" y1="0" y2="37.581"/>
                        <path class="sym" d="M -3,-3 l 6,6 M -3,3 l 6,-6"/>
                        <text class="lab lft" transform="translate(-5 0)">0</text>
                      </g>
                      <g class="mut m1 s1" transform="translate(0 -18.7905)">
                        <line x1="0" x2="0" y1="0" y2="18.7905"/>
                        <path class="sym" d="M -3,-3 l 6,6 M -3,3 l 6,-6"/>
                        <text class="lab lft" transform="translate(-5 0)">1</text>
                      </g>
                      <circle class="sym" cx="0" cy="0" r="3"/>
                      <text class="lab lft" transform="translate(-3 -7.0)">16</text>
                    </g>
                    <path class="edge" d="M 0 0 V -28.1857 H -66.4394"/>
                    <circle class="sym" cx="0" cy="0" r="3"/>
                    <text class="lab rgt" transform="translate(3 -7.0)">18</text>
                  </g>
                  <path class="edge" d="M 0 0 V -28.1857 H -54.4803"/>
                  <g class="mut m6 s3" transform="translate(0 -18.7905)">
                    <line x1="0" x2="0" y1="0" y2="18.7905"/>
                    <path class="sym" d="M -3,-3 l 6,6 M -3,3 l 6,-6"/>
                    <text class="lab rgt" transform="translate(5 0)">6</text>
                  </g>
                  <g class="mut m7 s4" transform="translate(0 -9.39524)">
                    <line x1="0" x2="0" y1="0" y2="9.39524"/>
                    <path class="sym" d="M -3,-3 l 6,6 M -3,3 l 6,-6"/>
                    <text class="lab rgt" transform="translate(5 0)">7</text>
                  </g>
                  <circle class="sym" cx="0" cy="0" r="3"/>
                  <text class="lab rgt" transform="translate(3 -7.0)">19</text>
                </g>
                <path class="edge" d="M 0 0 V -56.3714 H 116.269"/>
                <g class="mut m11 s8" transform="translate(0 -28.1857)">
                  <line x1="0" x2="0" y1="0" y2="28.1857"/>
                  <path class="sym" d="M -3,-3 l 6,6 M -3,3 l 6,-6"/>
                  <text class="lab lft" transform="translate(-5 0)">11</text>
                </g>
                <circle class="sym" cx="0" cy="0" r="3"/>
                <text class="lab lft" transform="translate(-3 -7.0)">20</text>
              </g>
              <path class="edge" d="M 0 0 V -56.3714 H 116.601"/>
              <circle class="sym" cx="0" cy="0" r="3"/>
              <text class="lab lft" transform="translate(-3 -7.0)">22</text>
            </g>
            <g class="a24 c2 node n23" transform="translate(116.601 28.1857)">
              <g class="a23 leaf node n5 sample" transform="translate(-21.2606 366.414)">
                <path class="edge" d="M 0 0 V -366.414 H 21.2606"/>
                <rect class="sym" height="6" width="6" x="-3" y="-3"/>
                <text class="lab" transform="translate(0 11)">5</text>
              </g>
              <g class="a23 c1 node n21" transform="translate(21.2606 56.3714)">
                <g class="a21 leaf node n6 sample" transform="translate(0.0 310.043)">
                  <path class="edge" d="M 0 0 V -310.043 H 0.0"/>
                  <rect class="sym" height="6" width="6" x="-3" y="-3"/>
                  <text class="lab" transform="translate(0 11)">6</text>
                </g>
                <path class="edge" d="M 0 0 V -56.3714 H -21.2606"/>
                <circle class="sym" cx="0" cy="0" r="3"/>
                <text class="lab rgt" transform="translate(3 -7.0)">21</text>
              </g>
              <path class="edge" d="M 0 0 V -28.1857 H -116.601"/>
              <circle class="sym" cx="0" cy="0" r="3"/>
              <text class="lab rgt" transform="translate(3 -7.0)">23</text>
            </g>
            <circle class="sym" cx="0" cy="0" r="3"/>
            <text class="lab" transform="translate(0 -11)">24</text>
          </g>
        </g>
      </g>
      <g class="tree t1" transform="translate(564.533 0)">
        <g class="plotbox">
          <g class="c2 node n24 root" transform="translate(318.313 26.8)">
            <g class="a24 c2 node n22" transform="translate(-126.899 56.3714)">
              <g class="a22 c2 m20 node n17 s15" transform="translate(-86.3712 140.929)">
                <g class="a17 c2 m25 m26 m28 m29 m30 m32 m33 m34 m35 node n14 s18 s19 s21 s22 s23 s25 s26 s27 s28" transform="translate(-42.5212 84.5571)">
                  <g class="a14 leaf node n1 sample" transform="translate(21.2606 112.743)">
                    <path class="edge" d="M 0 0 V -112.743 H -21.2606"/>
                    <rect class="sym" height="6" width="6" x="-3" y="-3"/>
                    <text class="lab" transform="translate(0 11)">1</text>
                  </g>
                  <g class="a14 c1 node n13" transform="translate(-21.2606 28.1857)">
                    <g class="a13 leaf node n0 sample" transform="translate(0.0 84.5571)">
                      <path class="edge" d="M 0 0 V -84.5571 H 0.0"/>
                      <rect class="sym" height="6" width="6" x="-3" y="-3"/>
                      <text class="lab" transform="translate(0 11)">0</text>
                    </g>
                    <path class="edge" d="M 0 0 V -28.1857 H 21.2606"/>
                    <circle class="sym" cx="0" cy="0" r="3"/>
                    <text class="lab lft" transform="translate(-3 -7.0)">13</text>
                  </g>
                  <path class="edge" d="M 0 0 V -84.5571 H 42.5212"/>
                  <g class="mut m25 s18" transform="translate(0 -76.1014)">
                    <line x1="0" x2="0" y1="0" y2="76.1014"/>
                    <path class="sym" d="M -3,-3 l 6,6 M -3,3 l 6,-6"/>
                    <text class="lab lft" transform="translate(-5 0)">25</text>
                  </g>
                  <g class="mut m26 s19" transform="translate(0 -67.6457)">
                    <line x1="0" x2="0" y1="0" y2="67.6457"/>
                    <path class="sym" d="M -3,-3 l 6,6 M -3,3 l 6,-6"/>
                    <text class="lab lft" transform="translate(-5 0)">26</text>
                  </g>
                  <g class="mut m28 s21" transform="translate(0 -59.19)">
                    <line x1="0" x2="0" y1="0" y2="59.19"/>
                    <path class="sym" d="M -3,-3 l 6,6 M -3,3 l 6,-6"/>
                    <text class="lab lft" transform="translate(-5 0)">28</text>
                  </g>
                  <g class="mut m29 s22" transform="translate(0 -50.7343)">
                    <line x1="0" x2="0" y1="0" y2="50.7343"/>
                    <path class="sym" d="M -3,-3 l 6,6 M -3,3 l 6,-6"/>
                    <text class="lab lft" transform="translate(-5 0)">29</text>
                  </g>
                  <g class="mut m30 s23" transform="translate(0 -42.2786)">
                    <line x1="0" x2="0" y1="0" y2="42.2786"/>
                    <path class="sym" d="M -3,-3 l 6,6 M -3,3 l 6,-6"/>
                    <text class="lab lft" transform="translate(-5 0)">30</text>
                  </g>
                  <g class="mut m32 s25" transform="translate(0 -33.8229)">
                    <line x1="0" x2="0" y1="0" y2="33.8229"/>
                    <path class="sym" d="M -3,-3 l 6,6 M -3,3 l 6,-6"/>
                    <text class="lab lft" transform="translate(-5 0)">32</text>
                  </g>
                  <g class="mut m33 s26" transform="translate(0 -25.3671)">
                    <line x1="0" x2="0" y1="0" y2="25.3671"/>
                    <path class="sym" d="M -3,-3 l 6,6 M -3,3 l 6,-6"/>
                    <text class="lab lft" transform="translate(-5 0)">33</text>
                  </g>
                  <g class="mut m34 s27" transform="translate(0 -16.9114)">
                    <line x1="0" x2="0" y1="0" y2="16.9114"/>
                    <path class="sym" d="M -3,-3 l 6,6 M -3,3 l 6,-6"/>
                    <text class="lab lft" transform="translate(-5 0)">34</text>
                  </g>
                  <g class="mut m35 s28" transform="translate(0 -8.45571)">
                    <line x1="0" x2="0" y1="0" y2="8.45571"/>
                    <path class="sym" d="M -3,-3 l 6,6 M -3,3 l 6,-6"/>
                    <text class="lab lft" transform="translate(-5 0)">35</text>
                  </g>
                  <circle class="sym" cx="0" cy="0" r="3"/>
                  <text class="lab lft" transform="translate(-3 -7.0)">14</text>
                </g>
                <g class="a17 c2 node n15" transform="translate(42.5212 56.3714)">
                  <g class="a15 leaf node n2 sample" transform="translate(-21.2606 140.929)">
                    <path class="edge" d="M 0 0 V -140.929 H 21.2606"/>
                    <rect class="sym" height="6" width="6" x="-3" y="-3"/>
                    <text class="lab" transform="translate(0 11)">2</text>
                  </g>
                  <g class="a15 leaf m22 m24 node n3 s16 s17 sample" transform="translate(21.2606 140.929)">
                    <path class="edge" d="M 0 0 V -140.929 H -21.2606"/>
                    <g class="mut m22 s16" transform="translate(0 -93.9524)">
                      <line x1="0" x2="0" y1="0" y2="93.9524"/>
                      <path class="sym" d="M -3,-3 l 6,6 M -3,3 l 6,-6"/>
                      <text class="lab rgt" transform="translate(5 0)">22</text>
                    </g>
                    <g class="mut m24 s17" transform="translate(0 -46.9762)">
                      <line x1="0" x2="0" y1="0" y2="46.9762"/>
                      <path class="sym" d="M -3,-3 l 6,6 M -3,3 l 6,-6"/>
                      <text class="lab rgt" transform="translate(5 0)">24</text>
                    </g>
                    <rect class="sym" height="6" width="6" x="-3" y="-3"/>
                    <text class="lab" transform="translate(0 11)">3</text>
                  </g>
                  <path class="edge" d="M 0 0 V -56.3714 H -42.5212"/>
                  <circle class="sym" cx="0" cy="0" r="3"/>
                  <text class="lab rgt" transform="translate(3 -7.0)">15</text>
                </g>
                <path class="edge" d="M 0 0 V -140.929 H 86.3712"/>
                <g class="mut m20 s15" transform="translate(0 -70.4643)">
                  <line x1="0" x2="0" y1="0" y2="70.4643"/>
                  <path class="sym" d="M -3,-3 l 6,6 M -3,3 l 6,-6"/>
                  <text class="lab lft" transform="translate(-5 0)">20</text>
                </g>
                <circle class="sym" cx="0" cy="0" r="3"/>
                <text class="lab lft" transform="translate(-3 -7.0)">17</text>
              </g>
              <g class="a22 c1 node n20" transform="translate(86.3712 56.3714)">
                <g class="a20 c2 node n19" transform="translate(0.0 28.1857)">
                  <g class="a19 leaf m13 m15 m19 m21 m23 node n4 s10 s11 s14 s16 s17 sample" transform="translate(-66.4394 253.671)">
                    <path class="edge" d="M 0 0 V -253.671 H 66.4394"/>
                    <g class="mut m13 s10" transform="translate(0 -211.393)">
                      <line x1="0" x2="0" y1="0" y2="211.393"/>
                      <path class="sym" d="M -3,-3 l 6,6 M -3,3 l 6,-6"/>
                      <text class="lab lft" transform="translate(-5 0)">13</text>
                    </g>
                    <g class="mut m15 s11" transform="translate(0 -169.114)">
                      <line x1="0" x2="0" y1="0" y2="169.114"/>
                      <path class="sym" d="M -3,-3 l 6,6 M -3,3 l 6,-6"/>
                      <text class="lab lft" transform="translate(-5 0)">15</text>
                    </g>
                    <g class="mut m19 s14" transform="translate(0 -126.836)">
                      <line x1="0" x2="0" y1="0" y2="126.836"/>
                      <path class="sym" d="M -3,-3 l 6,6 M -3,3 l 6,-6"/>
                      <text class="lab lft" transform="translate(-5 0)">19</text>
                    </g>
                    <g class="mut m21 s16" transform="translate(0 -84.5571)">
                      <line x1="0" x2="0" y1="0" y2="84.5571"/>
                      <path class="sym" d="M -3,-3 l 6,6 M -3,3 l 6,-6"/>
                      <text class="lab lft" transform="translate(-5 0)">21</text>
                    </g>
                    <g class="mut m23 s17" transform="translate(0 -42.2786)">
                      <line x1="0" x2="0" y1="0" y2="42.2786"/>
                      <path class="sym" d="M -3,-3 l 6,6 M -3,3 l 6,-6"/>
                      <text class="lab lft" transform="translate(-5 0)">23</text>
                    </g>
                    <rect class="sym" height="6" width="6" x="-3" y="-3"/>
                    <text class="lab" transform="translate(0 11)">4</text>
                  </g>
                  <g class="a19 c1 node n18" transform="translate(66.4394 28.1857)">
                    <g class="a18 c2 node n16" transform="translate(0.0 56.3714)">
                      <g class="a16 leaf m18 m27 m31 node n10 s13 s20 s24 sample" transform="translate(37.2061 169.114)">
                        <path class="edge" d="M 0 0 V -169.114 H -37.2061"/>
                        <g class="mut m18 s13" transform="translate(0 -126.836)">
                          <line x1="0" x2="0" y1="0" y2="126.836"/>
                          <path class="sym" d="M -3,-3 l 6,6 M -3,3 l 6,-6"/>
                          <text class="lab rgt" transform="translate(5 0)">18</text>
                        </g>
                        <g class="mut m27 s20" transform="translate(0 -84.5571)">
                          <line x1="0" x2="0" y1="0" y2="84.5571"/>
                          <path class="sym" d="M -3,-3 l 6,6 M -3,3 l 6,-6"/>
                          <text class="lab rgt" transform="translate(5 0)">27</text>
                        </g>
                        <g class="mut m31 s24" transform="translate(0 -42.2786)">
                          <line x1="0" x2="0" y1="0" y2="42.2786"/>
                          <path class="sym" d="M -3,-3 l 6,6 M -3,3 l 6,-6"/>
                          <text class="lab rgt" transform="translate(5 0)">31</text>
                        </g>
                        <rect class="sym" height="6" width="6" x="-3" y="-3"/>
                        <text class="lab" transform="translate(0 11)">10</text>
                      </g>
                      <g class="a16 c2 m14 m16 m17 node n12 s10 s11 s12" transform="translate(-37.2061 112.743)">
                        <g class="a12 leaf node n9 sample" transform="translate(31.8909 56.3714)">
                          <path class="edge" d="M 0 0 V -56.3714 H -31.8909"/>
                          <rect class="sym" height="6" width="6" x="-3" y="-3"/>
                          <text class="lab" transform="translate(0 11)">9</text>
                        </g>
                        <g class="a12 c2 node n11" transform="translate(-31.8909 28.1857)">
                          <g class="a11 leaf node n7 sample" transform="translate(-21.2606 28.1857)">
                            <path class="edge" d="M 0 0 V -28.1857 H 21.2606"/>
                            <rect class="sym" height="6" width="6" x="-3" y="-3"/>
                            <text class="lab" transform="translate(0 11)">7</text>
                          </g>
                          <g class="a11 leaf node n8 sample" transform="translate(21.2606 28.1857)">
                            <path class="edge" d="M 0 0 V -28.1857 H -21.2606"/>
                            <rect class="sym" height="6" width="6" x="-3" y="-3"/>
                            <text class="lab" transform="translate(0 11)">8</text>
                          </g>
                          <path class="edge" d="M 0 0 V -28.1857 H 31.8909"/>
                          <circle class="sym" cx="0" cy="0" r="3"/>
                          <text class="lab lft" transform="translate(-3 -7.0)">11</text>
                        </g>
                        <path class="edge" d="M 0 0 V -112.743 H 37.2061"/>
                        <g class="mut m14 s10" transform="translate(0 -84.5571)">
                          <line x1="0" x2="0" y1="0" y2="84.5571"/>
                          <path class="sym" d="M -3,-3 l 6,6 M -3,3 l 6,-6"/>
                          <text class="lab lft" transform="translate(-5 0)">14</text>
                        </g>
                        <g class="mut m16 s11" transform="translate(0 -56.3714)">
                          <line x1="0" x2="0" y1="0" y2="56.3714"/>
                          <path class="sym" d="M -3,-3 l 6,6 M -3,3 l 6,-6"/>
                          <text class="lab lft" transform="translate(-5 0)">16</text>
                        </g>
                        <g class="mut m17 s12" transform="translate(0 -28.1857)">
                          <line x1="0" x2="0" y1="0" y2="28.1857"/>
                          <path class="sym" d="M -3,-3 l 6,6 M -3,3 l 6,-6"/>
                          <text class="lab lft" transform="translate(-5 0)">17</text>
                        </g>
                        <circle class="sym" cx="0" cy="0" r="3"/>
                        <text class="lab lft" transform="translate(-3 -7.0)">12</text>
                      </g>
                      <path class="edge" d="M 0 0 V -56.3714 H 0.0"/>
                      <circle class="sym" cx="0" cy="0" r="3"/>
                      <text class="lab lft" transform="translate(-3 -7.0)">16</text>
                    </g>
                    <path class="edge" d="M 0 0 V -28.1857 H -66.4394"/>
                    <circle class="sym" cx="0" cy="0" r="3"/>
                    <text class="lab rgt" transform="translate(3 -7.0)">18</text>
                  </g>
                  <path class="edge" d="M 0 0 V -28.1857 H 0.0"/>
                  <circle class="sym" cx="0" cy="0" r="3"/>
                  <text class="lab lft" transform="translate(-3 -7.0)">19</text>
                </g>
                <path class="edge" d="M 0 0 V -56.3714 H -86.3712"/>
                <circle class="sym" cx="0" cy="0" r="3"/>
                <text class="lab rgt" transform="translate(3 -7.0)">20</text>
              </g>
              <path class="edge" d="M 0 0 V -56.3714 H 126.899"/>
              <circle class="sym" cx="0" cy="0" r="3"/>
              <text class="lab lft" transform="translate(-3 -7.0)">22</text>
            </g>
            <g class="a24 c2 node n23" transform="translate(126.899 28.1857)">
              <g class="a23 leaf node n5 sample" transform="translate(-21.2606 366.414)">
                <path class="edge" d="M 0 0 V -366.414 H 21.2606"/>
                <rect class="sym" height="6" width="6" x="-3" y="-3"/>
                <text class="lab" transform="translate(0 11)">5</text>
              </g>
              <g class="a23 c1 node n21" transform="translate(21.2606 56.3714)">
                <g class="a21 leaf node n6 sample" transform="translate(0.0 310.043)">
                  <path class="edge" d="M 0 0 V -310.043 H 0.0"/>
                  <rect class="sym" height="6" width="6" x="-3" y="-3"/>
                  <text class="lab" transform="translate(0 11)">6</text>
                </g>
                <path class="edge" d="M 0 0 V -56.3714 H -21.2606"/>
                <circle class="sym" cx="0" cy="0" r="3"/>
                <text class="lab rgt" transform="translate(3 -7.0)">21</text>
              </g>
              <path class="edge" d="M 0 0 V -28.1857 H -126.899"/>
              <circle class="sym" cx="0" cy="0" r="3"/>
              <text class="lab rgt" transform="translate(3 -7.0)">23</text>
            </g>
            <circle class="sym" cx="0" cy="0" r="3"/>
            <text class="lab" transform="translate(0 -11)">24</text>
          </g>
        </g>
      </g>
      <g class="tree t2" transform="translate(1072.27 0)">
        <g class="plotbox">
          <g class="c2 node n24 root" transform="translate(233.27 26.8)">
            <g class="a24 c2 m37 m40 m42 node n22 s30 s32 s34" transform="translate(-75.0765 56.3714)">
              <g class="a22 c2 m45 node n17 s36" transform="translate(-53.1515 140.929)">
                <g class="a17 c2 node n14" transform="translate(-42.5212 84.5571)">
                  <g class="a14 leaf node n1 sample" transform="translate(21.2606 112.743)">
                    <path class="edge" d="M 0 0 V -112.743 H -21.2606"/>
                    <rect class="sym" height="6" width="6" x="-3" y="-3"/>
                    <text class="lab" transform="translate(0 11)">1</text>
                  </g>
                  <g class="a14 c1 node n13" transform="translate(-21.2606 28.1857)">
                    <g class="a13 leaf node n0 sample" transform="translate(0.0 84.5571)">
                      <path class="edge" d="M 0 0 V -84.5571 H 0.0"/>
                      <rect class="sym" height="6" width="6" x="-3" y="-3"/>
                      <text class="lab" transform="translate(0 11)">0</text>
                    </g>
                    <path class="edge" d="M 0 0 V -28.1857 H 21.2606"/>
                    <circle class="sym" cx="0" cy="0" r="3"/>
                    <text class="lab lft" transform="translate(-3 -7.0)">13</text>
                  </g>
                  <path class="edge" d="M 0 0 V -84.5571 H 42.5212"/>
                  <circle class="sym" cx="0" cy="0" r="3"/>
                  <text class="lab lft" transform="translate(-3 -7.0)">14</text>
                </g>
                <g class="a17 c2 m44 node n15 s35" transform="translate(42.5212 56.3714)">
                  <g class="a15 leaf m49 m51 node n2 s40 s42 sample" transform="translate(-21.2606 140.929)">
                    <path class="edge" d="M 0 0 V -140.929 H 21.2606"/>
                    <g class="mut m49 s40" transform="translate(0 -93.9524)">
                      <line x1="0" x2="0" y1="0" y2="93.9524"/>
                      <path class="sym" d="M -3,-3 l 6,6 M -3,3 l 6,-6"/>
                      <text class="lab lft" transform="translate(-5 0)">49</text>
                    </g>
                    <g class="mut m51 s42" transform="translate(0 -46.9762)">
                      <line x1="0" x2="0" y1="0" y2="46.9762"/>
                      <path class="sym" d="M -3,-3 l 6,6 M -3,3 l 6,-6"/>
                      <text class="lab lft" transform="translate(-5 0)">51</text>
                    </g>
                    <rect class="sym" height="6" width="6" x="-3" y="-3"/>
                    <text class="lab" transform="translate(0 11)">2</text>
                  </g>
                  <g class="a15 leaf m47 m48 node n3 s38 s39 sample" transform="translate(21.2606 140.929)">
                    <path class="edge" d="M 0 0 V -140.929 H -21.2606"/>
                    <g class="mut m47 s38" transform="translate(0 -93.9524)">
                      <line x1="0" x2="0" y1="0" y2="93.9524"/>
                      <path class="sym" d="M -3,-3 l 6,6 M -3,3 l 6,-6"/>
                      <text class="lab rgt" transform="translate(5 0)">47</text>
                    </g>
                    <g class="mut m48 s39" transform="translate(0 -46.9762)">
                      <line x1="0" x2="0" y1="0" y2="46.9762"/>
                      <path class="sym" d="M -3,-3 l 6,6 M -3,3 l 6,-6"/>
                      <text class="lab rgt" transform="translate(5 0)">48</text>
                    </g>
                    <rect class="sym" height="6" width="6" x="-3" y="-3"/>
                    <text class="lab" transform="translate(0 11)">3</text>
                  </g>
                  <path class="edge" d="M 0 0 V -56.3714 H -42.5212"/>
                  <g class="mut m44 s35" transform="translate(0 -28.1857)">
                    <line x1="0" x2="0" y1="0" y2="28.1857"/>
                    <path class="sym" d="M -3,-3 l 6,6 M -3,3 l 6,-6"/>
                    <text class="lab rgt" transform="translate(5 0)">44</text>
                  </g>
                  <circle class="sym" cx="0" cy="0" r="3"/>
                  <text class="lab rgt" transform="translate(3 -7.0)">15</text>
                </g>
                <path class="edge" d="M 0 0 V -140.929 H 53.1515"/>
                <g class="mut m45 s36" transform="translate(0 -70.4643)">
                  <line x1="0" x2="0" y1="0" y2="70.4643"/>
                  <path class="sym" d="M -3,-3 l 6,6 M -3,3 l 6,-6"/>
                  <text class="lab lft" transform="translate(-5 0)">45</text>
                </g>
                <circle class="sym" cx="0" cy="0" r="3"/>
                <text class="lab lft" transform="translate(-3 -7.0)">17</text>
              </g>
              <g class="a22 c1 node n20" transform="translate(53.1515 56.3714)">
                <g class="a20 c1 node n19" transform="translate(0.0 28.1857)">
                  <g class="a19 leaf node n4 sample" transform="translate(0.0 253.671)">
                    <path class="edge" d="M 0 0 V -253.671 H 0.0"/>
                    <rect class="sym" height="6" width="6" x="-3" y="-3"/>
                    <text class="lab" transform="translate(0 11)">4</text>
                  </g>
                  <path class="edge" d="M 0 0 V -28.1857 H 0.0"/>
                  <circle class="sym" cx="0" cy="0" r="3"/>
                  <text class="lab lft" transform="translate(-3 -7.0)">19</text>
                </g>
                <path class="edge" d="M 0 0 V -56.3714 H -53.1515"/>
                <circle class="sym" cx="0" cy="0" r="3"/>
                <text class="lab rgt" transform="translate(3 -7.0)">20</text>
              </g>
              <path class="edge" d="M 0 0 V -56.3714 H 75.0765"/>
              <g class="mut m37 s30" transform="translate(0 -42.2786)">
                <line x1="0" x2="0" y1="0" y2="42.2786"/>
                <path class="sym" d="M -3,-3 l 6,6 M -3,3 l 6,-6"/>
                <text class="lab lft" transform="translate(-5 0)">37</text>
              </g>
              <g class="mut m40 s32" transform="translate(0 -28.1857)">
                <line x1="0" x2="0" y1="0" y2="28.1857"/>
                <path class="sym" d="M -3,-3 l 6,6 M -3,3 l 6,-6"/>
                <text class="lab lft" transform="translate(-5 0)">40</text>
              </g>
              <g class="mut m42 s34" transform="translate(0 -14.0929)">
                <line x1="0" x2="0" y1="0" y2="14.0929"/>
                <path class="sym" d="M -3,-3 l 6,6 M -3,3 l 6,-6"/>
                <text class="lab lft" transform="translate(-5 0)">42</text>
              </g>
              <circle class="sym" cx="0" cy="0" r="3"/>
              <text class="lab lft" transform="translate(-3 -7.0)">22</text>
            </g>
            <g class="a24 c2 m38 node n23 s31" transform="translate(75.0765 28.1857)">
              <g class="a23 leaf m39 m43 m50 node n5 s31 s35 s41 sample" transform="translate(-54.4803 366.414)">
                <path class="edge" d="M 0 0 V -366.414 H 54.4803"/>
                <g class="mut m39 s31" transform="translate(0 -274.811)">
                  <line x1="0" x2="0" y1="0" y2="274.811"/>
                  <path class="sym" d="M -3,-3 l 6,6 M -3,3 l 6,-6"/>
                  <text class="lab lft" transform="translate(-5 0)">39</text>
                </g>
                <g class="mut m43 s35" transform="translate(0 -183.207)">
                  <line x1="0" x2="0" y1="0" y2="183.207"/>
                  <path class="sym" d="M -3,-3 l 6,6 M -3,3 l 6,-6"/>
                  <text class="lab lft" transform="translate(-5 0)">43</text>
                </g>
                <g class="mut m50 s41" transform="translate(0 -91.6036)">
                  <line x1="0" x2="0" y1="0" y2="91.6036"/>
                  <path class="sym" d="M -3,-3 l 6,6 M -3,3 l 6,-6"/>
                  <text class="lab lft" transform="translate(-5 0)">50</text>
                </g>
                <rect class="sym" height="6" width="6" x="-3" y="-3"/>
                <text class="lab" transform="translate(0 11)">5</text>
              </g>
              <g class="a23 c2 m36 m41 node n21 s29 s33" transform="translate(54.4803 56.3714)">
                <g class="a21 leaf node n6 sample" transform="translate(-66.4394 310.043)">
                  <path class="edge" d="M 0 0 V -310.043 H 66.4394"/>
                  <rect class="sym" height="6" width="6" x="-3" y="-3"/>
                  <text class="lab" transform="translate(0 11)">6</text>
                </g>
                <g class="a21 c1 node n18" transform="translate(66.4394 84.5571)">
                  <g class="a18 c2 node n16" transform="translate(0.0 56.3714)">
                    <g class="a16 leaf node n10 sample" transform="translate(37.2061 169.114)">
                      <path class="edge" d="M 0 0 V -169.114 H -37.2061"/>
                      <rect class="sym" height="6" width="6" x="-3" y="-3"/>
                      <text class="lab" transform="translate(0 11)">10</text>
                    </g>
                    <g class="a16 c2 m46 node n12 s37" transform="translate(-37.2061 112.743)">
                      <g class="a12 leaf node n9 sample" transform="translate(31.8909 56.3714)">
                        <path class="edge" d="M 0 0 V -56.3714 H -31.8909"/>
                        <rect class="sym" height="6" width="6" x="-3" y="-3"/>
                        <text class="lab" transform="translate(0 11)">9</text>
                      </g>
                      <g class="a12 c2 node n11" transform="translate(-31.8909 28.1857)">
                        <g class="a11 leaf node n7 sample" transform="translate(-21.2606 28.1857)">
                          <path class="edge" d="M 0 0 V -28.1857 H 21.2606"/>
                          <rect class="sym" height="6" width="6" x="-3" y="-3"/>
                          <text class="lab" transform="translate(0 11)">7</text>
                        </g>
                        <g class="a11 leaf node n8 sample" transform="translate(21.2606 28.1857)">
                          <path class="edge" d="M 0 0 V -28.1857 H -21.2606"/>
                          <rect class="sym" height="6" width="6" x="-3" y="-3"/>
                          <text class="lab" transform="translate(0 11)">8</text>
                        </g>
                        <path class="edge" d="M 0 0 V -28.1857 H 31.8909"/>
                        <circle class="sym" cx="0" cy="0" r="3"/>
                        <text class="lab lft" transform="translate(-3 -7.0)">11</text>
                      </g>
                      <path class="edge" d="M 0 0 V -112.743 H 37.2061"/>
                      <g class="mut m46 s37" transform="translate(0 -56.3714)">
                        <line x1="0" x2="0" y1="0" y2="56.3714"/>
                        <path class="sym" d="M -3,-3 l 6,6 M -3,3 l 6,-6"/>
                        <text class="lab lft" transform="translate(-5 0)">46</text>
                      </g>
                      <circle class="sym" cx="0" cy="0" r="3"/>
                      <text class="lab lft" transform="translate(-3 -7.0)">12</text>
                    </g>
                    <path class="edge" d="M 0 0 V -56.3714 H 0.0"/>
                    <circle class="sym" cx="0" cy="0" r="3"/>
                    <text class="lab lft" transform="translate(-3 -7.0)">16</text>
                  </g>
                  <path class="edge" d="M 0 0 V -84.5571 H -66.4394"/>
                  <circle class="sym" cx="0" cy="0" r="3"/>
                  <text class="lab rgt" transform="translate(3 -7.0)">18</text>
                </g>
                <path class="edge" d="M 0 0 V -56.3714 H -54.4803"/>
                <g class="mut m36 s29" transform="translate(0 -37.581)">
                  <line x1="0" x2="0" y1="0" y2="37.581"/>
                  <path class="sym" d="M -3,-3 l 6,6 M -3,3 l 6,-6"/>
                  <text class="lab rgt" transform="translate(5 0)">36</text>
                </g>
                <g class="mut m41 s33" transform="translate(0 -18.7905)">
                  <line x1="0" x2="0" y1="0" y2="18.7905"/>
                  <path class="sym" d="M -3,-3 l 6,6 M -3,3 l 6,-6"/>
                  <text class="lab rgt" transform="translate(5 0)">41</text>
                </g>
                <circle class="sym" cx="0" cy="0" r="3"/>
                <text class="lab rgt" transform="translate(3 -7.0)">21</text>
              </g>
              <path class="edge" d="M 0 0 V -28.1857 H -75.0765"/>
              <g class="mut m38 s31" transform="translate(0 -14.0929)">
                <line x1="0" x2="0" y1="0" y2="14.0929"/>
                <path class="sym" d="M -3,-3 l 6,6 M -3,3 l 6,-6"/>
                <text class="lab rgt" transform="translate(5 0)">38</text>
              </g>
              <circle class="sym" cx="0" cy="0" r="3"/>
              <text class="lab rgt" transform="translate(3 -7.0)">23</text>
            </g>
            <circle class="sym" cx="0" cy="0" r="3"/>
            <text class="lab" transform="translate(0 -11)">24</text>
          </g>
        </g>
      </g>
    </g>
  </g>
</svg>
